<svg width="38" height="37" viewBox="0 0 38 37" fill="none" xmlns="http://www.w3.org/2000/svg">
<rect width="38" height="37" rx="4" fill="#E5DEFF"/>
<path d="M8 23V8H10V18H18V10H26C27.1 10 28.0417 10.3917 28.825 11.175C29.6083 11.9583 30 12.9 30 14V23H28V20H10V23H8ZM14 17C13.1667 17 12.4583 16.7083 11.875 16.125C11.2917 15.5417 11 14.8333 11 14C11 13.1667 11.2917 12.4583 11.875 11.875C12.4583 11.2917 13.1667 11 14 11C14.8333 11 15.5417 11.2917 16.125 11.875C16.7083 12.4583 17 13.1667 17 14C17 14.8333 16.7083 15.5417 16.125 16.125C15.5417 16.7083 14.8333 17 14 17ZM20 18H28V14C28 13.45 27.8042 12.9792 27.4125 12.5875C27.0208 12.1958 26.55 12 26 12H20V18ZM14 15C14.2833 15 14.5208 14.9042 14.7125 14.7125C14.9042 14.5208 15 14.2833 15 14C15 13.7167 14.9042 13.4792 14.7125 13.2875C14.5208 13.0958 14.2833 13 14 13C13.7167 13 13.4792 13.0958 13.2875 13.2875C13.0958 13.4792 13 13.7167 13 14C13 14.2833 13.0958 14.5208 13.2875 14.7125C13.4792 14.9042 13.7167 15 14 15ZM20 12V18V12Z" fill="#1A0063"/>
</svg>
