<svg width="40" height="40" viewBox="0 0 40 40" fill="none" xmlns="http://www.w3.org/2000/svg">
<rect width="40" height="40" rx="4" fill="#28166F" fill-opacity="0.1"/>
<path d="M14 19L19.5 10L25 19H14ZM25 30C23.75 30 22.6875 29.5625 21.8125 28.6875C20.9375 27.8125 20.5 26.75 20.5 25.5C20.5 24.25 20.9375 23.1875 21.8125 22.3125C22.6875 21.4375 23.75 21 25 21C26.25 21 27.3125 21.4375 28.1875 22.3125C29.0625 23.1875 29.5 24.25 29.5 25.5C29.5 26.75 29.0625 27.8125 28.1875 28.6875C27.3125 29.5625 26.25 30 25 30ZM10.5 29.5V21.5H18.5V29.5H10.5ZM25 28C25.7 28 26.2917 27.7583 26.775 27.275C27.2583 26.7917 27.5 26.2 27.5 25.5C27.5 24.8 27.2583 24.2083 26.775 23.725C26.2917 23.2417 25.7 23 25 23C24.3 23 23.7083 23.2417 23.225 23.725C22.7417 24.2083 22.5 24.8 22.5 25.5C22.5 26.2 22.7417 26.7917 23.225 27.275C23.7083 27.7583 24.3 28 25 28ZM12.5 27.5H16.5V23.5H12.5V27.5ZM17.55 17H21.45L19.5 13.85L17.55 17Z" fill="#28166F"/>
</svg>
