<svg width="19" height="13" viewBox="0 0 19 13" fill="none" xmlns="http://www.w3.org/2000/svg">
<path d="M9.01118 9.79045C10.021 9.79045 10.8975 9.43351 11.6408 8.71962C12.3841 8.00573 12.7818 7.13887 12.8339 6.11903C12.886 5.09919 12.5768 4.23233 11.9064 3.51844C11.236 2.80456 10.3959 2.44761 9.3861 2.44761C8.3763 2.44761 7.49975 2.80456 6.75645 3.51844C6.01314 4.23233 5.61545 5.09919 5.56338 6.11903C5.51131 7.13887 5.82047 8.00573 6.49088 8.71962C7.16128 9.43351 8.00138 9.79045 9.01118 9.79045ZM9.08616 8.32188C8.48029 8.32188 7.97623 8.10772 7.57398 7.67938C7.17174 7.25105 6.98624 6.73093 7.01748 6.11903C7.04873 5.50713 7.28734 4.98701 7.73332 4.55868C8.17931 4.13035 8.70524 3.91618 9.31112 3.91618C9.91699 3.91618 10.4211 4.13035 10.8233 4.55868C11.2255 4.98701 11.411 5.50713 11.3798 6.11903C11.3486 6.73093 11.1099 7.25105 10.664 7.67938C10.218 8.10772 9.69204 8.32188 9.08616 8.32188ZM8.88621 12.2381C6.92047 12.2381 5.15806 11.6839 3.59898 10.5757C2.03989 9.4675 0.944379 7.98194 0.312445 6.11903C1.13462 4.25613 2.38183 2.77056 4.05409 1.66234C5.72634 0.554112 7.54534 0 9.51107 0C11.4768 0 13.2392 0.554112 14.7983 1.66234C16.3574 2.77056 17.4529 4.25613 18.0848 6.11903C17.2627 7.98194 16.0154 9.4675 14.3432 10.5757C12.6709 11.6839 10.8519 12.2381 8.88621 12.2381ZM8.96952 10.6063C10.4909 10.6063 11.9085 10.2018 13.2221 9.39271C14.5358 8.58364 15.5643 7.49241 16.3076 6.11903C15.7045 4.74565 14.7875 3.65442 13.5564 2.84535C12.3254 2.03628 10.9492 1.63174 9.42776 1.63174C7.90633 1.63174 6.48879 2.03628 5.17514 2.84535C3.86149 3.65442 2.833 4.74565 2.08968 6.11903C2.69276 7.49241 3.60981 8.58364 4.84084 9.39271C6.07187 10.2018 7.4481 10.6063 8.96952 10.6063Z" fill="#797582"/>
</svg>
