<svg width="64" height="64" viewBox="0 0 64 64" fill="none" xmlns="http://www.w3.org/2000/svg">
<rect width="64" height="64" rx="16" fill="#FFDAD6"/>
<path d="M24.5 45.5C23.25 45.5 22.1875 45.0625 21.3125 44.1875C20.4375 43.3125 20 42.25 20 41H18.5C17.675 41 16.9688 40.7062 16.3813 40.1187C15.7938 39.5312 15.5 38.825 15.5 38V30.5H32V24.5C32 23.675 32.2938 22.9687 32.8813 22.3812C33.4688 21.7937 34.175 21.5 35 21.5H38V20C38 19.575 38.1437 19.2188 38.4312 18.9313C38.7187 18.6438 39.075 18.5 39.5 18.5H41C41.425 18.5 41.7813 18.6438 42.0688 18.9313C42.3563 19.2188 42.5 19.575 42.5 20V21.5H43.325C43.975 21.5 44.5625 21.6875 45.0875 22.0625C45.6125 22.4375 45.975 22.9375 46.175 23.5625L48.35 30.0125C48.4 30.1625 48.4375 30.3187 48.4625 30.4812C48.4875 30.6437 48.5 30.8125 48.5 30.9875V41H44C44 42.25 43.5625 43.3125 42.6875 44.1875C41.8125 45.0625 40.75 45.5 39.5 45.5C38.25 45.5 37.1875 45.0625 36.3125 44.1875C35.4375 43.3125 35 42.25 35 41H29C29 42.25 28.5625 43.3125 27.6875 44.1875C26.8125 45.0625 25.75 45.5 24.5 45.5V45.5M24.5 42.5C24.925 42.5 25.2813 42.3563 25.5688 42.0688C25.8563 41.7813 26 41.425 26 41C26 40.575 25.8563 40.2187 25.5688 39.9312C25.2813 39.6437 24.925 39.5 24.5 39.5C24.075 39.5 23.7188 39.6437 23.4313 39.9312C23.1438 40.2187 23 40.575 23 41C23 41.425 23.1438 41.7813 23.4313 42.0688C23.7188 42.3563 24.075 42.5 24.5 42.5V42.5M39.5 42.5C39.925 42.5 40.2813 42.3563 40.5688 42.0688C40.8563 41.7813 41 41.425 41 41C41 40.575 40.8563 40.2187 40.5688 39.9312C40.2813 39.6437 39.925 39.5 39.5 39.5C39.075 39.5 38.7187 39.6437 38.4312 39.9312C38.1437 40.2187 38 40.575 38 41C38 41.425 38.1437 41.7813 38.4312 42.0688C38.7187 42.3563 39.075 42.5 39.5 42.5V42.5M35 30.5H45.35L43.325 24.5V24.5V24.5H35V24.5V24.5V30.5V30.5M15.5 29V26.75H17V23.75H15.5V21.5H30.5V23.75H29V26.75H30.5V29H15.5V29M19.25 26.75H21.875V23.75H19.25V26.75V26.75M24.125 26.75H26.75V23.75H24.125V26.75V26.75" fill="#BA1A1A"/>
</svg>
