<svg width="40" height="40" viewBox="0 0 40 40" fill="none" xmlns="http://www.w3.org/2000/svg">
<rect width="40" height="40" rx="4" fill="#28166F" fill-opacity="0.1"/>
<path d="M11 30C10.45 30 9.97917 29.8042 9.5875 29.4125C9.19583 29.0208 9 28.55 9 28V16C9 15.45 9.19583 14.9792 9.5875 14.5875C9.97917 14.1958 10.45 14 11 14H14.15L16 12H22V14H16.875L15.05 16H11V28H27V19H29V28C29 28.55 28.8042 29.0208 28.4125 29.4125C28.0208 29.8042 27.55 30 27 30H11ZM27 16V14H25V12H27V10H29V12H31V14H29V16H27ZM19 26.5C20.25 26.5 21.3125 26.0625 22.1875 25.1875C23.0625 24.3125 23.5 23.25 23.5 22C23.5 20.75 23.0625 19.6875 22.1875 18.8125C21.3125 17.9375 20.25 17.5 19 17.5C17.75 17.5 16.6875 17.9375 15.8125 18.8125C14.9375 19.6875 14.5 20.75 14.5 22C14.5 23.25 14.9375 24.3125 15.8125 25.1875C16.6875 26.0625 17.75 26.5 19 26.5ZM19 24.5C18.3 24.5 17.7083 24.2583 17.225 23.775C16.7417 23.2917 16.5 22.7 16.5 22C16.5 21.3 16.7417 20.7083 17.225 20.225C17.7083 19.7417 18.3 19.5 19 19.5C19.7 19.5 20.2917 19.7417 20.775 20.225C21.2583 20.7083 21.5 21.3 21.5 22C21.5 22.7 21.2583 23.2917 20.775 23.775C20.2917 24.2583 19.7 24.5 19 24.5Z" fill="#28166F"/>
</svg>
