<svg width="64" height="64" viewBox="0 0 64 64" fill="none" xmlns="http://www.w3.org/2000/svg">
<rect width="64" height="64" rx="16" fill="#E1E0FF"/>
<path d="M20 47C19.175 47 18.4688 46.7062 17.8813 46.1187C17.2938 45.5312 17 44.825 17 44V26C17 25.175 17.2938 24.4687 17.8813 23.8812C18.4688 23.2937 19.175 23 20 23H26V20C26 19.175 26.2938 18.4688 26.8813 17.8813C27.4688 17.2938 28.175 17 29 17H35C35.825 17 36.5312 17.2938 37.1187 17.8813C37.7062 18.4688 38 19.175 38 20V23H44C44.825 23 45.5312 23.2937 46.1187 23.8812C46.7062 24.4687 47 25.175 47 26V44C47 44.825 46.7062 45.5312 46.1187 46.1187C45.5312 46.7062 44.825 47 44 47H20V47M29 23H35V20V20V20H29V20V20V23V23M30.5 36.5V41H33.5V36.5H38V33.5H33.5V29H30.5V33.5H26V36.5H30.5V36.5" fill="#2F2EBE"/>
</svg>
