<svg width="17" height="14" viewBox="0 0 17 14" fill="none" xmlns="http://www.w3.org/2000/svg">
<path d="M1.61567 13.0539C1.17136 13.0539 0.799164 12.8942 0.499077 12.5746C0.198991 12.2551 0.0604037 11.8709 0.0833155 11.4222L0.583209 1.63174C0.60612 1.18301 0.783935 0.798873 1.11665 0.479324C1.44937 0.159775 1.83789 0 2.2822 0H15.2076C15.6519 0 16.0241 0.159775 16.3242 0.479324C16.6243 0.798873 16.7628 1.18301 16.7399 1.63174L16.24 11.4222C16.2171 11.8709 16.0393 12.2551 15.7066 12.5746C15.3739 12.8942 14.9854 13.0539 14.541 13.0539H1.61567ZM8.36996 7.34284L2.11556 3.26348L1.69899 11.4222H14.6244L15.0409 3.26348L8.36996 7.34284ZM8.45328 5.7111L15.1243 1.63174H2.19888L8.45328 5.7111ZM2.11556 3.26348L2.19888 1.63174L2.11556 3.26348L1.69899 11.4222L2.11556 3.26348Z" fill="#797582"/>
</svg>
