<svg width="48" height="48" viewBox="0 0 48 48" fill="none" xmlns="http://www.w3.org/2000/svg">
<rect width="48" height="48" rx="4" fill="#E5DEFF"/>
<path d="M24 35.6667C22.3861 35.6667 20.8695 35.3605 19.45 34.748C18.0306 34.1355 16.7958 33.3042 15.7458 32.2542C14.6958 31.2042 13.8646 29.9695 13.2521 28.55C12.6396 27.1306 12.3333 25.6139 12.3333 24H14.6667C14.6667 25.2834 14.9097 26.4938 15.3958 27.6313C15.882 28.7688 16.5479 29.7605 17.3938 30.6063C18.2396 31.4521 19.2313 32.123 20.3688 32.6188C21.5063 33.1146 22.7167 33.3625 24 33.3625C26.6056 33.3625 28.8125 32.4584 30.6208 30.65C32.4292 28.8417 33.3333 26.6348 33.3333 24.0292C33.3333 21.4237 32.4292 19.2167 30.6208 17.4084C28.8125 15.6 26.6056 14.6959 24 14.6959C22.2695 14.6959 20.6993 15.1188 19.2896 15.9646C17.8799 16.8105 16.7667 17.9334 15.95 19.3334H19.3333V21.6667H12.3333V14.6667H14.6667V17C15.7361 15.5806 17.0778 14.448 18.6917 13.6021C20.3056 12.7563 22.075 12.3334 24 12.3334C25.6139 12.3334 27.1306 12.6396 28.55 13.2521C29.9695 13.8646 31.2042 14.6959 32.2542 15.7459C33.3042 16.7959 34.1354 18.0306 34.7479 19.45C35.3604 20.8695 35.6667 22.3862 35.6667 24C35.6667 25.6139 35.3604 27.1306 34.7479 28.55C34.1354 29.9695 33.3042 31.2042 32.2542 32.2542C31.2042 33.3042 29.9695 34.1355 28.55 34.748C27.1306 35.3605 25.6139 35.6667 24 35.6667ZM21.6667 28.6667C21.3361 28.6667 21.059 28.5549 20.8354 28.3313C20.6118 28.1077 20.5 27.8306 20.5 27.5V24C20.5 23.6695 20.6118 23.3924 20.8354 23.1688C21.059 22.9452 21.3361 22.8334 21.6667 22.8334V21.6667C21.6667 21.025 21.8951 20.4757 22.3521 20.0188C22.809 19.5618 23.3583 19.3334 24 19.3334C24.6417 19.3334 25.191 19.5618 25.6479 20.0188C26.1049 20.4757 26.3333 21.025 26.3333 21.6667V22.8334C26.6639 22.8334 26.941 22.9452 27.1646 23.1688C27.3882 23.3924 27.5 23.6695 27.5 24V27.5C27.5 27.8306 27.3882 28.1077 27.1646 28.3313C26.941 28.5549 26.6639 28.6667 26.3333 28.6667H21.6667ZM22.8333 22.8334H25.1667V21.6667C25.1667 21.3362 25.0549 21.0591 24.8313 20.8355C24.6076 20.6118 24.3306 20.5 24 20.5C23.6695 20.5 23.3924 20.6118 23.1688 20.8355C22.9451 21.0591 22.8333 21.3362 22.8333 21.6667V22.8334Z" fill="#13004F"/>
</svg>
