<svg width="64" height="51" viewBox="0 0 64 51" fill="none" xmlns="http://www.w3.org/2000/svg">
<rect width="64" height="50.5" rx="12" fill="#E5DEFF"/>
<path d="M36.3125 36.5L31 31.1875L32.75 29.4375L36.3125 33L43.375 25.9375L45.125 27.6875L36.3125 36.5ZM21.375 34C20.6875 34 20.099 33.7552 19.6094 33.2656C19.1198 32.776 18.875 32.1875 18.875 31.5V16.5C18.875 15.8125 19.1198 15.224 19.6094 14.7344C20.099 14.2448 20.6875 14 21.375 14H41.375C42.0625 14 42.651 14.2448 43.1406 14.7344C43.6302 15.224 43.875 15.8125 43.875 16.5V21.9375L36.3438 29.4688L32.75 25.875L27.4688 31.1562L30.3125 34H21.375ZM31.375 25.25L41.375 19V16.5L31.375 22.75L21.375 16.5V19L31.375 25.25Z" fill="#13004F"/>
</svg>
