<svg width="64" height="80" viewBox="0 0 64 80" fill="none" xmlns="http://www.w3.org/2000/svg">
<rect width="64" height="64" rx="12" fill="#E5DEFF"/>
<path d="M25.125 42C23.2292 42 21.6094 41.3438 20.2656 40.0312C18.9219 38.7188 18.25 37.1146 18.25 35.2188C18.25 33.5938 18.7396 32.1458 19.7188 30.875C20.6979 29.6042 21.9792 28.7917 23.5625 28.4375C24.0833 26.5208 25.125 24.9688 26.6875 23.7812C28.25 22.5938 30.0208 22 32 22C34.4375 22 36.5052 22.849 38.2031 24.5469C39.901 26.2448 40.75 28.3125 40.75 30.75C42.1875 30.9167 43.3802 31.5365 44.3281 32.6094C45.276 33.6823 45.75 34.9375 45.75 36.375C45.75 37.9375 45.2031 39.2656 44.1094 40.3594C43.0156 41.4531 41.6875 42 40.125 42H33.25C32.5625 42 31.974 41.7552 31.4844 41.2656C30.9948 40.776 30.75 40.1875 30.75 39.5V33.0625L28.75 35L27 33.25L32 28.25L37 33.25L35.25 35L33.25 33.0625V39.5H40.125C41 39.5 41.7396 39.1979 42.3438 38.5938C42.9479 37.9896 43.25 37.25 43.25 36.375C43.25 35.5 42.9479 34.7604 42.3438 34.1562C41.7396 33.5521 41 33.25 40.125 33.25H38.25V30.75C38.25 29.0208 37.6406 27.5469 36.4219 26.3281C35.2031 25.1094 33.7292 24.5 32 24.5C30.2708 24.5 28.7969 25.1094 27.5781 26.3281C26.3594 27.5469 25.75 29.0208 25.75 30.75H25.125C23.9167 30.75 22.8854 31.1771 22.0312 32.0312C21.1771 32.8854 20.75 33.9167 20.75 35.125C20.75 36.3333 21.1771 37.3646 22.0312 38.2188C22.8854 39.0729 23.9167 39.5 25.125 39.5H28.25V42H25.125Z" fill="#13004F"/>
</svg>
